<?xml version="1.0" encoding="utf-8"?>
<!-- Generator: Adobe Illustrator 25.3.1, SVG Export Plug-In . SVG Version: 6.00 Build 0)  -->
<svg version="1.1" xmlns="http://www.w3.org/2000/svg" xmlns:xlink="http://www.w3.org/1999/xlink" x="0px" y="0px"
	 viewBox="0 0 200.69 200.5" style="enable-background:new 0 0 791.69 547.5;" xml:space="preserve">
<style type="text/css">
	.st0{fill:#95C11F;}
	.st1{fill:#327241;}
	.st2{fill:#006633;}
	.st3{fill:#D2E5A1;}
	.st4{fill:#AED055;}
	.st5{fill:none;stroke:#C4DD82;stroke-width:2;stroke-miterlimit:10;stroke-dasharray:2.0731,2.0731;}
	.st6{fill:#C4DD82;}
	.st7{fill:none;stroke:#95C11F;stroke-width:2;stroke-miterlimit:10;stroke-dasharray:1.2985,1.2985;}
	.st8{fill:none;stroke:#C4DD82;stroke-width:2.1977;stroke-miterlimit:10;stroke-dasharray:2.278,2.278;}
	.st9{fill:none;stroke:#C4DD82;stroke-width:2;stroke-miterlimit:10;stroke-dasharray:1.8538,1.8538;}
	.st10{fill:none;stroke:#95C11F;stroke-width:2;stroke-miterlimit:10;stroke-dasharray:1.2475,1.2475;}
	.st11{fill:none;}
	.st12{font-family:'Helvetica-Bold';}
	.st13{font-size:10px;}
	.st14{fill:#1E1E1C;}
	.st15{font-family:'Helvetica';}
	.st16{fill:#FFFFFF;}
	.st17{font-size:12px;}
</style>
<g id="Capa_1">
	<g>
		<g>
			<g>
				<g>
					<path class="st0" d="M189.4,317.92L51.58,273.14c19.78-60.89,73.79-100.13,137.82-100.13V317.92z"/>
				</g>
			</g>
			<g>
				<g>
					<path class="st1" d="M189.4,317.92l85.17,117.23c-64.75,47.04-155.37,32.69-202.41-32.06
						c-28.22-38.85-35.42-84.29-20.58-129.95L189.4,317.92z"/>
				</g>
			</g>
			<g>
				<g>
					<path class="st2" d="M189.4,317.92V173.01c80.03,0,144.91,64.88,144.91,144.91c0,48.02-20.89,89.01-59.73,117.23L189.4,317.92z
						"/>
				</g>
			</g>
		</g>
		<g>
			<g>
			</g>
			<g>
			</g>
			<g>
			</g>
		</g>
	</g>
	<g>
		<g>
			<g>
				<g>
					<path class="st3" d="M592.01,305.02l-10.05-143.74c3.18-0.22,6.87-0.35,10.05-0.35V305.02z"/>
				</g>
			</g>
			<g>
				<g>
					<path class="st4" d="M592.01,305.02l-130.59-60.89c22.87-49.04,66.56-79.07,120.54-82.84L592.01,305.02z"/>
				</g>
			</g>
			<g>
				<g>
					<path class="st0" d="M592.01,305.02L501.33,417c-51.95-42.07-68.16-112.29-39.91-172.87L592.01,305.02z"/>
				</g>
			</g>
			<g>
				<g>
					<path class="st2" d="M592.01,305.02V160.93c79.58,0,144.09,64.51,144.09,144.09s-64.51,144.09-144.09,144.09
						c-35.01,0-63.47-10.08-90.68-32.11L592.01,305.02z"/>
				</g>
			</g>
		</g>
		<g>
			<g>
			</g>
			<g>
			</g>
			<g>
			</g>
			<g>
			</g>
		</g>
	</g>
	<g>
		<g>
			<polyline class="st5" points="76.99,137.95 76.99,261.02 103.82,261.02 			"/>
			<g>
				<path class="st6" d="M103.64,264.78c2.08,0,3.76-1.68,3.76-3.76s-1.68-3.76-3.76-3.76c-2.08,0-3.76,1.68-3.76,3.76
					S101.56,264.78,103.64,264.78z"/>
			</g>
		</g>
	</g>
	<g>
		<g>
			<line class="st7" x1="254.11" y1="161.2" x2="254.11" y2="285.43"/>
			<g>
				<path class="st0" d="M250.35,285.24c0,2.08,1.68,3.76,3.76,3.76c2.08,0,3.76-1.68,3.76-3.76c0-2.08-1.68-3.76-3.76-3.76
					C252.03,281.48,250.35,283.16,250.35,285.24z"/>
			</g>
		</g>
	</g>
	<g>
		<g>
			<line class="st8" x1="477.32" y1="345" x2="477.32" y2="427.69"/>
			<g>
				<path class="st6" d="M473.19,345.21c0-2.28,1.85-4.13,4.13-4.13c2.28,0,4.13,1.85,4.13,4.13c0,2.28-1.85,4.13-4.13,4.13
					C475.04,349.34,473.19,347.49,473.19,345.21z"/>
			</g>
		</g>
	</g>
	<g>
		<g>
			<line class="st5" x1="637.73" y1="354.75" x2="637.73" y2="475.88"/>
			<g>
				<path class="st6" d="M633.97,354.94c0-2.08,1.68-3.76,3.76-3.76s3.76,1.68,3.76,3.76c0,2.08-1.68,3.76-3.76,3.76
					S633.97,357.02,633.97,354.94z"/>
			</g>
		</g>
	</g>
	<g>
		<g>
			<line class="st9" x1="588.17" y1="127.4" x2="588.17" y2="148.19"/>
			<g>
				<path class="st6" d="M584.41,148c0,2.08,1.68,3.76,3.76,3.76s3.76-1.68,3.76-3.76c0-2.08-1.68-3.76-3.76-3.76
					S584.41,145.93,584.41,148z"/>
			</g>
		</g>
	</g>
	<g>
		<g>
			<line class="st5" x1="491.56" y1="224.65" x2="491.56" y2="177.81"/>
			<g>
				<path class="st6" d="M495.32,224.47c0,2.08-1.68,3.76-3.76,3.76s-3.76-1.68-3.76-3.76c0-2.08,1.68-3.76,3.76-3.76
					S495.32,222.39,495.32,224.47z"/>
			</g>
		</g>
	</g>
	<g>
		<g>
			<line class="st10" x1="145.71" y1="376.57" x2="145.71" y2="482.39"/>
			<g>
				<path class="st0" d="M141.95,376.76c0-2.08,1.68-3.76,3.76-3.76s3.76,1.68,3.76,3.76c0,2.08-1.68,3.76-3.76,3.76
					S141.95,378.83,141.95,376.76z"/>
			</g>
		</g>
	</g>
</g>
<g id="texto">
	<g>
		
			<rect x="36.41" y="33.48" transform="matrix(0.9999 -0.0118 0.0118 0.9999 -0.5308 1.7882)" class="st11" width="228.61" height="24.46"/>
		<text transform="matrix(0.9999 -0.0118 0.0118 0.9999 36.4584 50.3108)" class="st2 st12 st13">ACTIVIDAD DIARIA</text>
	</g>
	<g>
		
			<rect x="424.83" y="33.48" transform="matrix(0.9999 -0.0118 0.0118 0.9999 -0.5036 6.3882)" class="st11" width="228.61" height="24.46"/>
		<text transform="matrix(0.9999 -0.0118 0.0118 0.9999 424.8737 50.3108)" class="st2 st12 st13">ALIMENTACIÓN</text>
	</g>
	<g>
		
			<rect x="36.8" y="63.57" transform="matrix(0.9999 -0.0118 0.0118 0.9999 -1.2004 1.5932)" class="st11" width="194.26" height="77.16"/>
		<text transform="matrix(0.9999 -0.0118 0.0118 0.9999 36.5285 80.1759)"><tspan x="0" y="0" class="st14 st15 st13">Acicalamiento (limpieza </tspan><tspan x="0" y="21.6" class="st14 st15 st13">y/o desparasitación) y </tspan><tspan x="0" y="43.2" class="st14 st15 st13">búsqueda de comida.</tspan></text>
	</g>
	<g>
		
			<rect x="216.74" y="132.99" transform="matrix(0.9999 -0.0118 0.0118 0.9999 -1.6617 3.1503)" class="st11" width="96.84" height="17.78"/>
		<text transform="matrix(0.9999 -0.0118 0.0118 0.9999 216.8235 149.0167)" class="st14 st15 st13">Descanso</text>
	</g>
	<g>
		
			<rect x="600.72" y="483" transform="matrix(0.9999 -0.0118 0.0118 0.9999 -5.791 7.7564)" class="st11" width="102.59" height="19.69"/>
		<text transform="matrix(0.9999 -0.0118 0.0118 0.9999 600.7891 499.0601)" class="st14 st15 st13">Frugívoro</text>
	</g>
	<g>
		
			<rect x="425.94" y="152.31" transform="matrix(0.9999 -0.0118 0.0118 0.9999 -1.8653 5.6642)" class="st11" width="102.76" height="16.04"/>
		<text transform="matrix(0.9999 -0.0118 0.0118 0.9999 426.0329 168.3704)" class="st14 st15 st13">Folívoro </text>
	</g>
	<g>
		
			<rect x="429.98" y="435.03" transform="matrix(0.9999 -0.0118 0.0118 0.9999 -5.2371 5.8528)" class="st11" width="123.16" height="20.19"/>
		<text transform="matrix(0.9999 -0.0118 0.0118 0.9999 430.0513 451.2167)" class="st14 st15 st13">Insectívoro </text>
	</g>
	<g>
		
			<rect x="91.38" y="495.97" transform="matrix(0.9999 -0.0118 0.0118 0.9999 -6.042 1.7616)" class="st11" width="108.68" height="30.14"/>
		<text transform="matrix(0.9999 -0.0118 0.0118 0.9999 91.3911 512.0693)" class="st14 st15 st13">Alimentación</text>
	</g>
	<g>
		
			<rect x="530.11" y="75.67" transform="matrix(0.9999 -0.0118 0.0118 0.9999 -1.1053 6.9474)" class="st11" width="111.88" height="42.26"/>
		<text transform="matrix(0.9999 -0.0118 0.0118 0.9999 560.9487 88.9057)"><tspan x="0" y="0" class="st14 st15 st13">Flores</tspan><tspan x="12" y="21.6" class="st14 st15 st13">1%</tspan></text>
	</g>
	<g>
		<text transform="matrix(1 0 0 1 231.5853 310.9287)" class="st16 st12 st17">40% </text>
	</g>
	<g>
		<text transform="matrix(1 0 0 1 119.7636 368.2196)" class="st16 st12 st17">40% </text>
	</g>
	<g>
		<rect x="117.32" y="246.15" class="st11" width="51.3" height="24.27"/>
		<text transform="matrix(1 0 0 1 118.95 266.7906)" class="st16 st12 st17">20%</text>
	</g>
	<g>
		<rect x="612.04" y="314.07" class="st11" width="59.85" height="21.03"/>
		<text transform="matrix(1 0 0 1 617.9442 331.3126)" class="st16 st12 st17">61%</text>
	</g>
	<g>
		<rect x="484.24" y="315.97" class="st11" width="62.49" height="25.11"/>
		<text transform="matrix(1 0 0 1 491.4643 333.2134)" class="st16 st12 st17">21%</text>
	</g>
	<g>
		<rect x="515.48" y="227.67" class="st11" width="48.06" height="20.26"/>
		<text transform="matrix(1 0 0 1 515.4952 244.9185)" class="st16 st12 st17">17%</text>
	</g>
</g>
</svg>
