<?xml version="1.0" encoding="utf-8"?>
<!-- Generator: Adobe Illustrator 25.3.1, SVG Export Plug-In . SVG Version: 6.00 Build 0)  -->
<svg version="1.1" id="Capa_1" xmlns="http://www.w3.org/2000/svg" xmlns:xlink="http://www.w3.org/1999/xlink" x="0px" y="0px"
	 viewBox="0 0 283.46 309.99" style="enable-background:new 0 0 283.46 309.99;" xml:space="preserve">
<style type="text/css">
	.st0{font-family:'Helvetica';}
	.st1{font-size:12px;}
	.st2{fill:#95C11F;}
	.st3{fill:none;stroke:#000000;stroke-linecap:round;stroke-linejoin:round;stroke-miterlimit:10;}
	.st4{fill:#FFFFFF;stroke:#000000;stroke-linecap:round;stroke-linejoin:round;stroke-miterlimit:10;}
	.st5{fill:#FFFFFF;stroke:#000000;stroke-miterlimit:10;}
	.st6{fill:none;}
	.st7{fill:#1E1E1C;}
	.st8{font-size:7.5px;}
	.st9{fill:none;stroke:#95C11F;stroke-width:0.4811;stroke-miterlimit:10;}

	@keyframes mueve {
            0% {
                transform: rotate(-0.009turn);
            }
            100% {
                transform: rotate(0, 0);
            }
        }

            #dedo {
            transform-origin: center;
            animation: mueve 2s infinite alternate;
        }
</style>
<g id="numeros">
	<text transform="matrix(1 0 0 1 82.2943 107.2503)" class="st0 st1">I</text>
	<text transform="matrix(1 0 0 1 133.659 42.0691)" class="st0 st1">II</text>
	<text transform="matrix(1 0 0 1 153.7201 42.0691)" class="st0 st1">III</text>
	<text transform="matrix(1 0 0 1 171.5904 48.7831)" class="st0 st1">IV</text>
	<text transform="matrix(1 0 0 1 187.4945 73.366)" class="st0 st1">V</text>
</g>
<g id="dedo">
	<g>
		<polygon class="st2" points="143.96,68.94 161.75,68.94 161.57,123.29 147.32,122.9 145.01,112.19 143.44,93.3 142.91,69.21 		"/>
		<path class="st3" d="M147.27,122.94c-1.19-1.47-1.18-6.69-1.18-6.69l-1.89-16.34l-0.69-30.71c0,0,3.9-22.32-6.69-22.32
			c-10.31,0-6.68,20.43-6.68,20.43s0.67,29.34-0.53,35.17c-0.95,4.62-0.47,17.47-0.23,22.44l0.28,1.86"/>
	</g>
	<path class="st3" d="M134.81,69.36c0,0,2.32,1.07,4.38,0.89s3.71-0.8,3.71-0.8"/>
</g>
<g id="mano">
	<path class="st4" d="M148.82,122.33c0.53-1.36,0.72-3.62,0.72-3.62V69.74c0,0-6.55-23.42,7.85-22.4
		c12.28,0.87,4.85,24.02,4.85,24.02l-0.23,48.5c0,0-0.28,5.54,1.11,5.52c1.7-0.03,1.89-3.91,1.89-3.91l1.88-49.63
		c0,0-2.83-19.45,7.82-18.27c5.61,0.62,6.21,4.07,6.9,8.23s-2.74,11.17-2.74,11.17v50.12c0,0-0.33,8.66,1.85,8.55
		c1.42-0.08,1.62-3,1.62-3l1.15-32.1c0,0-4.62-18.43,4.85-18.25c11.78,0.22,5.72,16.75,5.72,16.75s0,46.53,0,55.12
		c0,0-9.95,43.88-8.6,69.22c1.36,25.34,2.96,54.56-4.52,70.58c-3.04,6.51-10.86,11.76-28.05,6.33
		c-17.19-5.43-21.26-42.53-24.88-58.81c-3.62-16.29-25.79-33.48-44.56-51.58s-9.41-50.57-9.41-50.57s-6.52-28.48,12.69-25.56
		c14.56,2.21,7.34,27.27,7.34,27.27s-1.58,4.07,0.96,6.38s6.01,6.47,5.31,10.62c-0.69,4.16-1.85,7.39-1.85,7.39
		s5.77-2.08,10.62,1.85s4.39,6.24,4.39,6.24s3.93-2.31,6.7-0.23s5.54,6.47,5.54,6.47l3-1.85c0,0-8.55-9.93-6.01-25.64
		s6.93-21.94,6.93-21.94"/>
	<path class="st5" d="M128.32,173.9c0,0,7.13,17.89,4.9,31.04"/>
	<path class="st3" d="M129.68,126.33c0,0,12.34-1.27,29.22,3.69c16.88,4.96,29.79,11.85,29.79,11.85"/>
	<path class="st3" d="M153.72,71.27c0,0,2.32,1.07,4.38,0.89s3.71-0.8,3.71-0.8"/>
	<path class="st3" d="M169.97,73.37c0,0,2.32,1.07,4.38,0.89s3.71-0.8,3.71-0.8"/>
	<path class="st3" d="M185.42,94.83c0,0,2.32,1.07,4.38,0.89s3.71-0.8,3.71-0.8"/>
	<path class="st3" d="M77.98,140.95c0,0,4.31,1.07,8.13,0.89c3.81-0.18,6.89-0.8,6.89-0.8"/>
</g>
<g>
	<rect x="180.07" y="5.81" class="st6" width="78.53" height="31.44"/>
	<text transform="matrix(1 0 0 1 183.2754 11.2069)"><tspan x="0" y="0" class="st7 st0 st8">Membrana interdigital </tspan><tspan x="-0.21" y="9" class="st7 st0 st8">entre dedos II y III (se </tspan><tspan x="-1.46" y="18" class="st7 st0 st8">desconoce su función)</tspan></text>
</g>
<g>
	<g>
		<polyline class="st9" points="184.71,13.7 147.64,13.7 147.64,21.1 		"/>
		<g>
			<polygon class="st2" points="145.86,19.75 147.64,20.51 149.43,19.75 147.64,23.97 			"/>
		</g>
	</g>
</g>
</svg>
